<!--?xml version="1.0" standalone="no"?-->
              <svg id="sw-js-blob-svg" viewBox="0 0 100 100" xmlns="http://www.w3.org/2000/svg" version="1.1">
                    <defs> 
                        <linearGradient id="sw-gradient" x1="0" x2="1" y1="1" y2="0">
                            <stop id="stop1" stop-color="rgba(248, 117, 55, 1)" offset="0%"></stop>
                            <stop id="stop2" stop-color="rgba(251, 168, 31, 1)" offset="100%"></stop>
                        </linearGradient>
                    </defs>
                <path fill="url(#sw-gradient)" d="M20.1,-33.8C27.1,-30.7,34.7,-27.6,38.6,-21.9C42.5,-16.3,42.8,-8.1,41.6,-0.7C40.4,6.7,37.7,13.5,34.2,19.8C30.6,26.1,26.2,31.9,20.4,34.9C14.5,37.9,7.3,38.1,0.1,38C-7.1,37.9,-14.3,37.5,-21.2,35.1C-28.2,32.7,-34.9,28.4,-38.3,22.2C-41.7,16,-41.8,8,-41.6,0.1C-41.5,-7.9,-41.2,-15.7,-37.6,-21.6C-34,-27.5,-27.2,-31.5,-20.4,-34.7C-13.6,-37.9,-6.8,-40.3,-0.2,-40.1C6.5,-39.8,13,-36.8,20.1,-33.8Z" width="100%" height="100%" transform="translate(50 50)" stroke-width="0" style="transition: all 0.3s ease 0s;"></path>
              </svg>