<svg id="Слой_1" data-name="Слой 1" xmlns="http://www.w3.org/2000/svg" viewBox="0 0 1024 1024"><defs><style>.cls-1{fill:#fff;}.cls-2{fill:#2126a1;}</style></defs><g id="Layer_1"><path class="cls-1" d="M1024,512C1024,229.25,794.75,0,512,0S0,229.25,0,512c0,255.53,187.2,467.36,432,505.81V660H302V512H432V399.17C432,270.87,508.47,200,625.4,200c56,0,114.63,10,114.63,10V336H675.44C611.86,336,592,375.41,592,416V512H734L711.3,660H592v357.78C836.8,979.43,1024,767.6,1024,512Z" transform="translate(0 0)"/><path class="cls-2" d="M711.3,660,734,512H592V416c0-40.46,19.8-80,83.45-80H740V210s-58.61-10-114.63-10C508.47,200,432,270.8,432,399.17V512H302V660H432v357.78a514.38,514.38,0,0,0,80,6.19,523.09,523.09,0,0,0,80-6.19V660Z" transform="translate(0 0)"/></g></svg>