<svg id="Слой_1" data-name="Слой 1" xmlns="http://www.w3.org/2000/svg" viewBox="0 0 503.84 503.84"><defs><style>.cls-1{fill:#fcfcfc;}.cls-2{fill:#fff;}</style></defs><path class="cls-1" d="M256,49.47c67.27,0,75.23.26,101.8,1.47,24.56,1.12,37.9,5.22,46.78,8.67a78,78,0,0,1,29,18.85,78,78,0,0,1,18.85,29c3.45,8.87,7.55,22.21,8.67,46.77,1.22,26.57,1.47,34.54,1.47,101.8s-.25,75.24-1.47,101.8c-1.12,24.56-5.22,37.9-8.67,46.78a83.43,83.43,0,0,1-47.81,47.81c-8.88,3.45-22.22,7.56-46.78,8.68-26.56,1.21-34.53,1.47-101.8,1.47s-75.24-.26-101.8-1.47c-24.56-1.12-37.9-5.23-46.78-8.68a78.09,78.09,0,0,1-29-18.84,78.11,78.11,0,0,1-18.85-29c-3.45-8.88-7.55-22.22-8.67-46.78-1.22-26.56-1.47-34.53-1.47-101.8s.25-75.23,1.47-101.8c1.12-24.56,5.22-37.9,8.67-46.78a78,78,0,0,1,18.85-29,78,78,0,0,1,29-18.85c8.88-3.45,22.22-7.55,46.78-8.67,26.57-1.21,34.53-1.47,101.8-1.47m0-45.39c-68.42,0-77,.29-103.86,1.51S107,11.08,91,17.3A123.59,123.59,0,0,0,46.37,46.36,123.48,123.48,0,0,0,17.3,91c-6.22,16-10.48,34.34-11.7,61.15S4.08,187.58,4.08,256s.29,77,1.52,103.87S11.08,405,17.31,421a123.54,123.54,0,0,0,29.06,44.62A123.43,123.43,0,0,0,91,494.69c16,6.23,34.33,10.49,61.15,11.71s35.45,1.52,103.86,1.52,77-.29,103.87-1.52S405,500.92,421,494.69A128.79,128.79,0,0,0,494.7,421c6.23-16,10.48-34.34,11.71-61.15s1.51-35.45,1.51-103.87-.29-77-1.51-103.87S500.93,107,494.7,91a123.54,123.54,0,0,0-29.06-44.62A123.59,123.59,0,0,0,421,17.3c-16-6.22-34.34-10.48-61.15-11.7S324.42,4.08,256,4.08Z" transform="translate(-4.08 -4.08)"/><path class="cls-1" d="M256,126.64A129.37,129.37,0,1,0,385.36,256h0A129.35,129.35,0,0,0,256,126.64ZM256,340a84,84,0,1,1,84-84A84,84,0,0,1,256,340Z" transform="translate(-4.08 -4.08)"/><circle class="cls-2" cx="386.4" cy="117.45" r="30.23"/></svg>