<svg id="Слой_1" 
data-name="Слой 1" 
xmlns="http://www.w3.org/2000/svg" 
xmlns:xlink="http://www.w3.org/1999/xlink" viewBox="0 0 1535.05 269.25">
<defs><style>.cls-1{fill:none;stroke:#2126a1;stroke-miterlimit:10;}</style></defs><image width="626" height="483" transform="translate(390.37 169.25) scale(0.21)" xlink:href="teeth1.png"/><path class="cls-1" d="M1767.23,96.92C1694.83,84.77,1605.4,65.74,1540,83.24c-65.76,17.6-120.67,7.9-186.45.65-67.2-7.4-79.56,12.78-166.77,8.78-24.22-1.11-26.87,3-59.17-5.29s-83.83,4.5-56.17,8.56-1-19.84-44.37-14.82-133.85,5-189.25-1.82-78.27-3.67-148.44,5.36C513.23,102.91,525.64,51,464.24,51s-59.3-9-59.3-19.85,6.12-12.07,11.46-12.07c3.49,0,6.73,2.28,12,2.28,5.84,0,8.27-2.28,14.55-2.28,14.66,0,8.62,22.48,3.17,30.92s-.79,30.77-8.32,30.77-6.63-26.83-11.19-26.83-5.94,26.83-9.11,26.83-4.65-7.13-4.85-11.88-.1-15.65-12.77-22.38-25.32-5.12-42.08,1.88c-31.71,11.87-41.47,32.78-67.71,32.78-42.23.83-79.25-23.51-41.88-62.09s69.58-37.28,69.58-55.93" transform="translate(-232.27 36.85)"/></svg>