<svg id="Livello_1" data-name="Livello 1" xmlns="http://www.w3.org/2000/svg" viewBox="0 0 238.92 240"><defs><style>.cls-1{fill:#fff;}.cls-2{fill:#101666;}.cls-3{fill:#0f1963;}.cls-4{fill:#333dbc;}.cls-5{fill:#2126a1;}</style></defs><ellipse class="cls-1" cx="119.46" cy="120" rx="119.46" ry="120"/><path class="cls-2" d="M160.93,81.48l-31.52,60.89s-3.72,3.86-8.55,8.8l-1.7,1.73c-8.32,8.47-18.87,19-20,19a1.79,1.79,0,0,1-.8-.2c-1.57-.78-2.88-3.49-2.88-3.49l-13.72-38-.52-1.44.51-10.17Z" transform="translate(-1.08)"/><path class="cls-3" d="M122.54,152.16s-.75.6-2,1.68c-3.05,2.56-9.12,7.82-15.38,14.08-3.8,3.8-5.77,4.36-6.78,3.75-1.35-.83-1-3.75-1-3.75l2.7-28.62a1.11,1.11,0,0,1,0-.17l0-.25.06,0,20.69,12.26Z" transform="translate(-1.08)"/><path class="cls-4" d="M179.27,72.71c0,.76-.1,1.45-.17,2.55-.69,11.16-21.4,94.49-21.4,94.49s-1.24,4.87-5.67,5a8.12,8.12,0,0,1-5.93-2.29c-4.68-4-15.52-11.71-25.59-18.66,1.28-1.08,2-1.68,2-1.68l-1.68-1c4.83-4.94,8.55-8.8,8.55-8.8l31.52-60.89L81.74,118.6l-.51,10.17.52,1.44-.26,0L52.2,120.64s-3.5-1.42-2.37-4.64c.23-.67.7-1.23,2.1-2.2C58.42,109.27,172,68.44,172,68.44s3.21-1.08,5.1-.37A2.76,2.76,0,0,1,179,70.13,9.31,9.31,0,0,1,179.27,72.71Z" transform="translate(-1.08)"/><path class="cls-5" d="M129.41,142.37s-3.72,3.86-8.55,8.8l1.68,1s-.75.6-2,1.68l-1.35-.94c-8.17-5.63-15.61-10.63-18.53-12.58a1.25,1.25,0,0,1-.55-.9.49.49,0,0,1,0-.12,1.11,1.11,0,0,1,0-.17.65.65,0,0,1,.08-.22,2.13,2.13,0,0,1,.33-.54s52.43-46.6,53.82-51.49c.11-.38-.3-.57-.85-.4C150,87.76,89.63,125.88,83,130.09a3.16,3.16,0,0,1-1.22.12l-.52-1.44.51-10.17,79.19-37.12Z" transform="translate(-1.08)"/></svg>